<svg xmlns="http://www.w3.org/2000/svg" viewBox="0 0 368 469"><defs><style>.cls-1{fill:#a32a2a;}</style></defs><title>Asset 1</title><g id="Layer_2" data-name="Layer 2"><g id="Layer_3" data-name="Layer 3"><path class="cls-1" d="M0,453.08V10A10,10,0,0,1,10,0H118.77a10,10,0,0,1,9.5,6.87l49,148.84a5,5,0,0,0,9.49,0L236.71,6.82A10,10,0,0,1,246.19,0H358a10,10,0,0,1,10,10V459a10,10,0,0,1-10,10H254a10,10,0,0,1-10-10l3.08-159c0-3.24-4.93-4.37-6.25-1.42L192,427c-3.49,7.8-15.36,3.73-19-4L125,301.19c-1.37-2.91-5.15-2-5.11,1.17l0,152.05a9.36,9.36,0,0,1-9.44,9.47l-100.48-.8A10,10,0,0,1,0,453.08Z"/></g></g></svg>